<?xml version="1.0" encoding="UTF-8" standalone="no"?>
<!-- Created with Digital by H.Neemann -->
<!-- created: Thu Apr 10 22:04:56 BRT 2025 -->

<svg
   xmlns:svg="http://www.w3.org/2000/svg"
   xmlns="http://www.w3.org/2000/svg"
   width="340.65mm"
   height="266.85mm"
   viewBox="-102 -342 2271 1779">
<g stroke-linecap="square">
<path d="M 240,1280 L 280,1280 L 280,1320 L 340,1320 L 344,1320" stroke="#0000b2" stroke-width="4.0" fill="none"/>
<path d="M 340,840 L 340,960 L 400,960" stroke="#0000b2" stroke-width="4.0" fill="none"/>
<path d="M 260,580 L 340,580 L 620,580" stroke="#0000b2" stroke-width="4.0" fill="none"/>
<path d="M 0,260 L 160,260" stroke="#0000b2" stroke-width="4.0" fill="none"/>
<path d="M 260,260 L 340,260 L 340,160 L 440,160 L 444,160" stroke="#0000b2" stroke-width="4.0" fill="none"/>
<path d="M 240,1160 L 440,1160 L 440,1300 L 480,1300 L 484,1300" stroke="#0000b2" stroke-width="4.0" fill="none"/>
<path d="M 340,740 L 340,840 L 400,840" stroke="#0000b2" stroke-width="4.0" fill="none"/>
<path d="M 340,580 L 340,520 L 400,520" stroke="#0000b2" stroke-width="4.0" fill="none"/>
<path d="M 0,-140 L 100,-140 L 100,-200 L 160,-200" stroke="#0000b2" stroke-width="4.0" fill="none"/>
<path d="M 0,1420 L 160,1420 L 164,1420" stroke="#0000b2" stroke-width="4.0" fill="none"/>
<path d="M 520,140 L 660,140 L 660,120 L 720,120" stroke="#0000b2" stroke-width="4.0" fill="none"/>
<path d="M 820,140 L 900,140" stroke="#0000b2" stroke-width="4.0" fill="none"/>
<path d="M 0,1300 L 160,1300 L 164,1300" stroke="#0000b2" stroke-width="4.0" fill="none"/>
<path d="M 500,980 L 620,980" stroke="#0000b2" stroke-width="4.0" fill="none"/>
<path d="M 0,340 L 100,340 L 100,280 L 160,280" stroke="#0000b2" stroke-width="4.0" fill="none"/>
<path d="M 0,20 L 160,20" stroke="#0000b2" stroke-width="4.0" fill="none"/>
<path d="M 260,20 L 340,20 L 340,120 L 440,120 L 444,120" stroke="#0000b2" stroke-width="4.0" fill="none"/>
<path d="M 0,600 L 160,600" stroke="#0000b2" stroke-width="4.0" fill="none"/>
<path d="M 260,-220 L 580,-220" stroke="#0000b2" stroke-width="4.0" fill="none"/>
<path d="M 0,-220 L 160,-220" stroke="#0000b2" stroke-width="4.0" fill="none"/>
<path d="M 0,1180 L 160,1180 L 164,1180" stroke="#0000b2" stroke-width="4.0" fill="none"/>
<path d="M 500,860 L 620,860" stroke="#0000b2" stroke-width="4.0" fill="none"/>
<path d="M 0,480 L 100,480 L 400,480" stroke="#0000b2" stroke-width="4.0" fill="none"/>
<path d="M 660,140 L 660,160 L 720,160" stroke="#0000b2" stroke-width="4.0" fill="none"/>
<path d="M 0,100 L 100,100 L 100,40 L 160,40" stroke="#0000b2" stroke-width="4.0" fill="none"/>
<path d="M 0,1380 L 160,1380 L 164,1380" stroke="#0000b2" stroke-width="4.0" fill="none"/>
<path d="M 260,740 L 340,740 L 620,740" stroke="#0000b2" stroke-width="4.0" fill="none"/>
<path d="M 0,740 L 120,740 L 120,720 L 160,720" stroke="#0000b2" stroke-width="4.0" fill="none"/>
<path d="M 560,1320 L 640,1320" stroke="#0000b2" stroke-width="4.0" fill="none"/>
<path d="M 260,1000 L 400,1000" stroke="#0000b2" stroke-width="4.0" fill="none"/>
<path d="M 60,880 L 60,1000 L 120,1000 L 120,980 L 160,980" stroke="#0000b2" stroke-width="4.0" fill="none"/>
<path d="M 0,-300 L 100,-300 L 100,-240 L 160,-240" stroke="#0000b2" stroke-width="4.0" fill="none"/>
<path d="M 0,1260 L 160,1260 L 164,1260" stroke="#0000b2" stroke-width="4.0" fill="none"/>
<path d="M 100,480 L 100,560 L 160,560" stroke="#0000b2" stroke-width="4.0" fill="none"/>
<path d="M 0,880 L 60,880 L 400,880" stroke="#0000b2" stroke-width="4.0" fill="none"/>
<path d="M 500,500 L 620,500" stroke="#0000b2" stroke-width="4.0" fill="none"/>
<path d="M 0,1140 L 160,1140 L 164,1140" stroke="#0000b2" stroke-width="4.0" fill="none"/>
<path d="M 0,180 L 100,180 L 100,240 L 160,240" stroke="#0000b2" stroke-width="4.0" fill="none"/>
<path d="M 240,1400 L 280,1400 L 280,1360 L 340,1360 L 344,1360" stroke="#0000b2" stroke-width="4.0" fill="none"/>
<path d="M 120,740 L 120,760 L 160,760" stroke="#0000b2" stroke-width="4.0" fill="none"/>
<path d="M 0,-60 L 100,-60 L 100,0 L 160,0" stroke="#0000b2" stroke-width="4.0" fill="none"/>
<path d="M 420,1340 L 480,1340 L 484,1340" stroke="#0000b2" stroke-width="4.0" fill="none"/>
<path d="M 120,1000 L 120,1020 L 160,1020" stroke="#0000b2" stroke-width="4.0" fill="none"/>
<g>
<circle cx="340.0" cy="580.0" r="4.0" stroke="#0000b2" stroke-width="4.0" fill="#0000b2" />
<circle cx="340.0" cy="840.0" r="4.0" stroke="#0000b2" stroke-width="4.0" fill="#0000b2" />
<circle cx="660.0" cy="140.0" r="4.0" stroke="#0000b2" stroke-width="4.0" fill="#0000b2" />
<circle cx="100.0" cy="480.0" r="4.0" stroke="#0000b2" stroke-width="4.0" fill="#0000b2" />
<circle cx="340.0" cy="740.0" r="4.0" stroke="#0000b2" stroke-width="4.0" fill="#0000b2" />
<circle cx="120.0" cy="740.0" r="4.0" stroke="#0000b2" stroke-width="4.0" fill="#0000b2" />
<circle cx="120.0" cy="1000.0" r="4.0" stroke="#0000b2" stroke-width="4.0" fill="#0000b2" />
<circle cx="60.0" cy="880.0" r="4.0" stroke="#0000b2" stroke-width="4.0" fill="#0000b2" />
</g>
<g>
<path d="M 210,770 L 161,770 L 161,710 L 210,710 C 220,710 240,720 239,740 C 239,760 220,770 210,770 Z" stroke="#000000" stroke-width="4.0" fill="none"/>
<circle cx="250.0" cy="740.0" r="9.0" stroke="#000000" stroke-width="4.0" fill="none" />
<circle cx="160.0" cy="720.0" r="2.0" stroke="#0000b2" stroke-width="4.0" fill="#0000b2" />
<circle cx="160.0" cy="760.0" r="2.0" stroke="#0000b2" stroke-width="4.0" fill="#0000b2" />
<circle cx="260.0" cy="740.0" r="2.0" stroke="#b20000" stroke-width="4.0" fill="#b20000" />
</g>
<g>
<path d="M 450,890 L 401,890 L 401,830 L 450,830 C 460,830 480,840 479,860 C 479,880 460,890 450,890 Z" stroke="#000000" stroke-width="4.0" fill="none"/>
<circle cx="490.0" cy="860.0" r="9.0" stroke="#000000" stroke-width="4.0" fill="none" />
<circle cx="400.0" cy="840.0" r="2.0" stroke="#0000b2" stroke-width="4.0" fill="#0000b2" />
<circle cx="400.0" cy="880.0" r="2.0" stroke="#0000b2" stroke-width="4.0" fill="#0000b2" />
<circle cx="500.0" cy="860.0" r="2.0" stroke="#b20000" stroke-width="4.0" fill="#b20000" />
</g>
<g>
<path d="M 450,1010 L 401,1010 L 401,950 L 450,950 C 460,950 480,960 479,980 C 479,1000 460,1010 450,1010 Z" stroke="#000000" stroke-width="4.0" fill="none"/>
<circle cx="490.0" cy="980.0" r="9.0" stroke="#000000" stroke-width="4.0" fill="none" />
<circle cx="400.0" cy="960.0" r="2.0" stroke="#0000b2" stroke-width="4.0" fill="#0000b2" />
<circle cx="400.0" cy="1000.0" r="2.0" stroke="#0000b2" stroke-width="4.0" fill="#0000b2" />
<circle cx="500.0" cy="980.0" r="2.0" stroke="#b20000" stroke-width="4.0" fill="#b20000" />
</g>
<g>
<path d="M 210,-190 L 161,-190 L 161,-250 L 210,-250 C 220,-250 240,-240 239,-220 C 239,-200 220,-190 210,-190 Z" stroke="#000000" stroke-width="4.0" fill="none"/>
<circle cx="250.0" cy="-220.0" r="9.0" stroke="#000000" stroke-width="4.0" fill="none" />
<circle cx="160.0" cy="-240.0" r="2.0" stroke="#0000b2" stroke-width="4.0" fill="#0000b2" />
<circle cx="160.0" cy="-220.0" r="2.0" stroke="#0000b2" stroke-width="4.0" fill="#0000b2" />
<circle cx="160.0" cy="-200.0" r="2.0" stroke="#0000b2" stroke-width="4.0" fill="#0000b2" />
<circle cx="260.0" cy="-220.0" r="2.0" stroke="#b20000" stroke-width="4.0" fill="#b20000" />
</g>
<g>
<circle cx="596.0" cy="-220.0" r="9.0" stroke="#000000" stroke-width="4.0" fill="none" />
<circle cx="596.0" cy="-220.0" r="15.0" stroke="#000000" stroke-width="4.0" fill="none" />
<text text-anchor="start" x="625.0" y="-211.0" fill="#000000" style="font-size:24px"><tspan style="font-style:italic;">HA</tspan></text>
<circle cx="580.0" cy="-220.0" r="2.0" stroke="#0000b2" stroke-width="4.0" fill="#0000b2" />
</g>
<g>
<circle cx="636.0" cy="740.0" r="9.0" stroke="#000000" stroke-width="4.0" fill="none" />
<circle cx="636.0" cy="740.0" r="15.0" stroke="#000000" stroke-width="4.0" fill="none" />
<text text-anchor="start" x="665.0" y="749.0" fill="#000000" style="font-size:24px"><tspan style="font-style:italic;">RAM</tspan></text>
<circle cx="620.0" cy="740.0" r="2.0" stroke="#0000b2" stroke-width="4.0" fill="#0000b2" />
</g>
<g>
<circle cx="636.0" cy="980.0" r="9.0" stroke="#000000" stroke-width="4.0" fill="none" />
<circle cx="636.0" cy="980.0" r="15.0" stroke="#000000" stroke-width="4.0" fill="none" />
<text text-anchor="start" x="665.0" y="989.0" fill="#000000" style="font-size:24px"><tspan style="font-style:italic;">DEV</tspan></text>
<circle cx="620.0" cy="980.0" r="2.0" stroke="#0000b2" stroke-width="4.0" fill="#0000b2" />
</g>
<g>
<circle cx="636.0" cy="860.0" r="9.0" stroke="#000000" stroke-width="4.0" fill="none" />
<circle cx="636.0" cy="860.0" r="15.0" stroke="#000000" stroke-width="4.0" fill="none" />
<text text-anchor="start" x="665.0" y="869.0" fill="#000000" style="font-size:24px"><tspan style="font-style:italic;">ROM</tspan></text>
<circle cx="620.0" cy="860.0" r="2.0" stroke="#0000b2" stroke-width="4.0" fill="#0000b2" />
</g>
<g>
<circle cx="636.0" cy="500.0" r="9.0" stroke="#000000" stroke-width="4.0" fill="none" />
<circle cx="636.0" cy="500.0" r="15.0" stroke="#000000" stroke-width="4.0" fill="none" />
<text text-anchor="start" x="665.0" y="509.0" fill="#000000" style="font-size:24px"><tspan style="font-style:italic;">WR</tspan></text>
<circle cx="620.0" cy="500.0" r="2.0" stroke="#0000b2" stroke-width="4.0" fill="#0000b2" />
</g>
<g>
<circle cx="636.0" cy="580.0" r="9.0" stroke="#000000" stroke-width="4.0" fill="none" />
<circle cx="636.0" cy="580.0" r="15.0" stroke="#000000" stroke-width="4.0" fill="none" />
<text text-anchor="start" x="665.0" y="589.0" fill="#000000" style="font-size:24px"><tspan style="font-style:italic;">RD</tspan></text>
<circle cx="620.0" cy="580.0" r="2.0" stroke="#0000b2" stroke-width="4.0" fill="#0000b2" />
</g>
<g>
<path d="M -31,465 L -1,465 L -1,495 L -31,495 Z" stroke="#000000" stroke-width="4.0" fill="none"/>
<circle cx="-16.0" cy="480.0" r="9.0" stroke="#000000" stroke-width="4.0" fill="none" />
<text text-anchor="end" x="-45.0" y="489.0" fill="#000000" style="font-size:24px"><tspan style="font-style:italic;">PHI2</tspan></text>
<circle cx="0.0" cy="480.0" r="2.0" stroke="#b20000" stroke-width="4.0" fill="#b20000" />
</g>
<g>
<path d="M -31,585 L -1,585 L -1,615 L -31,615 Z" stroke="#000000" stroke-width="4.0" fill="none"/>
<circle cx="-16.0" cy="600.0" r="9.0" stroke="#000000" stroke-width="4.0" fill="none" />
<text text-anchor="end" x="-45.0" y="609.0" fill="#000000" style="font-size:24px"><tspan style="font-style:italic;">R/W</tspan></text>
<circle cx="0.0" cy="600.0" r="2.0" stroke="#b20000" stroke-width="4.0" fill="#b20000" />
</g>
<g>
<path d="M -31,-315 L -1,-315 L -1,-285 L -31,-285 Z" stroke="#000000" stroke-width="4.0" fill="none"/>
<circle cx="-16.0" cy="-300.0" r="9.0" stroke="#000000" stroke-width="4.0" fill="none" />
<text text-anchor="end" x="-45.0" y="-291.0" fill="#000000" style="font-size:24px"><tspan style="font-style:italic;">A15</tspan></text>
<circle cx="0.0" cy="-300.0" r="2.0" stroke="#b20000" stroke-width="4.0" fill="#b20000" />
</g>
<g>
<path d="M -31,-235 L -1,-235 L -1,-205 L -31,-205 Z" stroke="#000000" stroke-width="4.0" fill="none"/>
<circle cx="-16.0" cy="-220.0" r="9.0" stroke="#000000" stroke-width="4.0" fill="none" />
<text text-anchor="end" x="-45.0" y="-211.0" fill="#000000" style="font-size:24px"><tspan style="font-style:italic;">A14</tspan></text>
<circle cx="0.0" cy="-220.0" r="2.0" stroke="#b20000" stroke-width="4.0" fill="#b20000" />
</g>
<g>
<path d="M -31,-155 L -1,-155 L -1,-125 L -31,-125 Z" stroke="#000000" stroke-width="4.0" fill="none"/>
<circle cx="-16.0" cy="-140.0" r="9.0" stroke="#000000" stroke-width="4.0" fill="none" />
<text text-anchor="end" x="-45.0" y="-131.0" fill="#000000" style="font-size:24px"><tspan style="font-style:italic;">A13</tspan></text>
<circle cx="0.0" cy="-140.0" r="2.0" stroke="#b20000" stroke-width="4.0" fill="#b20000" />
</g>
<g>
<path d="M -31,725 L -1,725 L -1,755 L -31,755 Z" stroke="#000000" stroke-width="4.0" fill="none"/>
<circle cx="-16.0" cy="740.0" r="9.0" stroke="#000000" stroke-width="4.0" fill="none" />
<text text-anchor="end" x="-45.0" y="749.0" fill="#000000" style="font-size:24px"><tspan style="font-style:italic;">HA</tspan></text>
<circle cx="0.0" cy="740.0" r="2.0" stroke="#b20000" stroke-width="4.0" fill="#b20000" />
</g>
<g>
<path d="M 210,1030 L 161,1030 L 161,970 L 210,970 C 220,970 240,980 239,1000 C 239,1020 220,1030 210,1030 Z" stroke="#000000" stroke-width="4.0" fill="none"/>
<circle cx="250.0" cy="1000.0" r="9.0" stroke="#000000" stroke-width="4.0" fill="none" />
<circle cx="160.0" cy="980.0" r="2.0" stroke="#0000b2" stroke-width="4.0" fill="#0000b2" />
<circle cx="160.0" cy="1020.0" r="2.0" stroke="#0000b2" stroke-width="4.0" fill="#0000b2" />
<circle cx="260.0" cy="1000.0" r="2.0" stroke="#b20000" stroke-width="4.0" fill="#b20000" />
</g>
<g>
<path d="M -31,865 L -1,865 L -1,895 L -31,895 Z" stroke="#000000" stroke-width="4.0" fill="none"/>
<circle cx="-16.0" cy="880.0" r="9.0" stroke="#000000" stroke-width="4.0" fill="none" />
<text text-anchor="end" x="-45.0" y="889.0" fill="#000000" style="font-size:24px"><tspan style="font-style:italic;">HB</tspan></text>
<circle cx="0.0" cy="880.0" r="2.0" stroke="#b20000" stroke-width="4.0" fill="#b20000" />
</g>
<g>
<text text-anchor="start" x="1600.0" y="82.5" fill="#000000" style="font-size:30px">Memory Map:</text>
<text text-anchor="start" x="1600.0" y="156.5" fill="#000000" style="font-size:30px"><tspan style="font-style:italic;">0000 - </tspan>DFFF, SRAM <tspan style="text-decoration:overline;"></tspan> 56kb</text>
<text text-anchor="start" x="1600.0" y="230.5" fill="#000000" style="font-size:30px"><tspan style="font-style:italic;">E000 - </tspan>E0FF, Devices 16 x 16 bytes</text>
<text text-anchor="start" x="1600.0" y="304.5" fill="#000000" style="font-size:30px"><tspan style="font-style:italic;">E100 - </tspan>FFFF, EEPROM <tspan style="text-decoration:overline;"></tspan> 8kb</text>
</g>
<g>
<text text-anchor="start" x="1600.0" y="-317.5" fill="#000000" style="font-size:30px">65C02.TOY, minimal SBC</text>
<text text-anchor="start" x="1600.0" y="-243.5" fill="#000000" style="font-size:30px">SRAM = HM62256 32k x 8</text>
<text text-anchor="start" x="1600.0" y="-169.5" fill="#000000" style="font-size:30px">EEPROM = AT28C64 8k x 8</text>
<text text-anchor="start" x="1600.0" y="-95.5" fill="#000000" style="font-size:30px">Devices = W65C22S x 2, NM6551 x 1</text>
<text text-anchor="start" x="1600.0" y="-21.5" fill="#000000" style="font-size:30px">CPU = W65C02S</text>
</g>
<g>
<text text-anchor="start" x="1600.0" y="402.5" fill="#000000" style="font-size:30px">SIgnals:</text>
<text text-anchor="start" x="1600.0" y="476.5" fill="#000000" style="font-size:30px">A15 a A8, Address</text>
<text text-anchor="start" x="1600.0" y="550.5" fill="#000000" style="font-size:30px">PHI2, R/W, ENABLE, States</text>
<text text-anchor="start" x="1600.0" y="624.5" fill="#000000" style="font-size:30px">/WR, /RW, /RAM, /ROM, /DEV, Controls</text>
<text text-anchor="start" x="1600.0" y="698.5" fill="#000000" style="font-size:30px">PS: ENABLE could be VDD (5V)</text>
</g>
<g>
<path d="M 190,1310 L 160,1310 C 170,1294 170,1266 160,1250 L 180,1250 C 210,1250 230,1260 240,1280 C 230,1300 210,1310 190,1310 Z" stroke="#000000" stroke-width="4.0" fill="none"/>
<circle cx="160.0" cy="1260.0" r="2.0" stroke="#0000b2" stroke-width="4.0" fill="#0000b2" />
<circle cx="160.0" cy="1300.0" r="2.0" stroke="#0000b2" stroke-width="4.0" fill="#0000b2" />
<circle cx="240.0" cy="1280.0" r="2.0" stroke="#b20000" stroke-width="4.0" fill="#b20000" />
</g>
<g>
<path d="M -31,1245 L -1,1245 L -1,1275 L -31,1275 Z" stroke="#000000" stroke-width="4.0" fill="none"/>
<circle cx="-16.0" cy="1260.0" r="9.0" stroke="#000000" stroke-width="4.0" fill="none" />
<text text-anchor="end" x="-45.0" y="1269.0" fill="#000000" style="font-size:24px"><tspan style="font-style:italic;">A8</tspan></text>
<circle cx="0.0" cy="1260.0" r="2.0" stroke="#b20000" stroke-width="4.0" fill="#b20000" />
</g>
<g>
<path d="M -31,1285 L -1,1285 L -1,1315 L -31,1315 Z" stroke="#000000" stroke-width="4.0" fill="none"/>
<circle cx="-16.0" cy="1300.0" r="9.0" stroke="#000000" stroke-width="4.0" fill="none" />
<text text-anchor="end" x="-45.0" y="1309.0" fill="#000000" style="font-size:24px"><tspan style="font-style:italic;">A9</tspan></text>
<circle cx="0.0" cy="1300.0" r="2.0" stroke="#b20000" stroke-width="4.0" fill="#b20000" />
</g>
<g>
<path d="M 190,1430 L 160,1430 C 170,1414 170,1386 160,1370 L 180,1370 C 210,1370 230,1380 240,1400 C 230,1420 210,1430 190,1430 Z" stroke="#000000" stroke-width="4.0" fill="none"/>
<circle cx="160.0" cy="1380.0" r="2.0" stroke="#0000b2" stroke-width="4.0" fill="#0000b2" />
<circle cx="160.0" cy="1420.0" r="2.0" stroke="#0000b2" stroke-width="4.0" fill="#0000b2" />
<circle cx="240.0" cy="1400.0" r="2.0" stroke="#b20000" stroke-width="4.0" fill="#b20000" />
</g>
<g>
<path d="M -31,1365 L -1,1365 L -1,1395 L -31,1395 Z" stroke="#000000" stroke-width="4.0" fill="none"/>
<circle cx="-16.0" cy="1380.0" r="9.0" stroke="#000000" stroke-width="4.0" fill="none" />
<text text-anchor="end" x="-45.0" y="1389.0" fill="#000000" style="font-size:24px"><tspan style="font-style:italic;">A10</tspan></text>
<circle cx="0.0" cy="1380.0" r="2.0" stroke="#b20000" stroke-width="4.0" fill="#b20000" />
</g>
<g>
<path d="M -31,1405 L -1,1405 L -1,1435 L -31,1435 Z" stroke="#000000" stroke-width="4.0" fill="none"/>
<circle cx="-16.0" cy="1420.0" r="9.0" stroke="#000000" stroke-width="4.0" fill="none" />
<text text-anchor="end" x="-45.0" y="1429.0" fill="#000000" style="font-size:24px"><tspan style="font-style:italic;">A11</tspan></text>
<circle cx="0.0" cy="1420.0" r="2.0" stroke="#b20000" stroke-width="4.0" fill="#b20000" />
</g>
<g>
<path d="M 370,1370 L 340,1370 C 350,1354 350,1326 340,1310 L 360,1310 C 390,1310 410,1320 420,1340 C 410,1360 390,1370 370,1370 Z" stroke="#000000" stroke-width="4.0" fill="none"/>
<circle cx="340.0" cy="1320.0" r="2.0" stroke="#0000b2" stroke-width="4.0" fill="#0000b2" />
<circle cx="340.0" cy="1360.0" r="2.0" stroke="#0000b2" stroke-width="4.0" fill="#0000b2" />
<circle cx="420.0" cy="1340.0" r="2.0" stroke="#b20000" stroke-width="4.0" fill="#b20000" />
</g>
<g>
<path d="M -31,1165 L -1,1165 L -1,1195 L -31,1195 Z" stroke="#000000" stroke-width="4.0" fill="none"/>
<circle cx="-16.0" cy="1180.0" r="9.0" stroke="#000000" stroke-width="4.0" fill="none" />
<text text-anchor="end" x="-45.0" y="1189.0" fill="#000000" style="font-size:24px"><tspan style="font-style:italic;">A12</tspan></text>
<circle cx="0.0" cy="1180.0" r="2.0" stroke="#b20000" stroke-width="4.0" fill="#b20000" />
</g>
<g>
<path d="M 510,1350 L 480,1350 C 490,1334 490,1306 480,1290 L 500,1290 C 530,1290 550,1300 560,1320 C 550,1340 530,1350 510,1350 Z" stroke="#000000" stroke-width="4.0" fill="none"/>
<circle cx="480.0" cy="1300.0" r="2.0" stroke="#0000b2" stroke-width="4.0" fill="#0000b2" />
<circle cx="480.0" cy="1340.0" r="2.0" stroke="#0000b2" stroke-width="4.0" fill="#0000b2" />
<circle cx="560.0" cy="1320.0" r="2.0" stroke="#b20000" stroke-width="4.0" fill="#b20000" />
</g>
<g>
<path d="M -31,1125 L -1,1125 L -1,1155 L -31,1155 Z" stroke="#000000" stroke-width="4.0" fill="none"/>
<circle cx="-16.0" cy="1140.0" r="9.0" stroke="#000000" stroke-width="4.0" fill="none" />
<text text-anchor="end" x="-45.0" y="1149.0" fill="#000000" style="font-size:24px"><tspan style="font-style:italic;">HA</tspan></text>
<circle cx="0.0" cy="1140.0" r="2.0" stroke="#b20000" stroke-width="4.0" fill="#b20000" />
</g>
<g>
<path d="M 190,1190 L 160,1190 C 170,1174 170,1146 160,1130 L 180,1130 C 210,1130 230,1140 240,1160 C 230,1180 210,1190 190,1190 Z" stroke="#000000" stroke-width="4.0" fill="none"/>
<circle cx="160.0" cy="1140.0" r="2.0" stroke="#0000b2" stroke-width="4.0" fill="#0000b2" />
<circle cx="160.0" cy="1180.0" r="2.0" stroke="#0000b2" stroke-width="4.0" fill="#0000b2" />
<circle cx="240.0" cy="1160.0" r="2.0" stroke="#b20000" stroke-width="4.0" fill="#b20000" />
</g>
<g>
<circle cx="656.0" cy="1320.0" r="9.0" stroke="#000000" stroke-width="4.0" fill="none" />
<circle cx="656.0" cy="1320.0" r="15.0" stroke="#000000" stroke-width="4.0" fill="none" />
<text text-anchor="start" x="685.0" y="1329.0" fill="#000000" style="font-size:24px"><tspan style="font-style:italic;">HB</tspan></text>
<circle cx="640.0" cy="1320.0" r="2.0" stroke="#0000b2" stroke-width="4.0" fill="#0000b2" />
</g>
<g>
<path d="M 210,610 L 161,610 L 161,550 L 210,550 C 220,550 240,560 239,580 C 239,600 220,610 210,610 Z" stroke="#000000" stroke-width="4.0" fill="none"/>
<circle cx="250.0" cy="580.0" r="9.0" stroke="#000000" stroke-width="4.0" fill="none" />
<circle cx="160.0" cy="560.0" r="2.0" stroke="#0000b2" stroke-width="4.0" fill="#0000b2" />
<circle cx="160.0" cy="600.0" r="2.0" stroke="#0000b2" stroke-width="4.0" fill="#0000b2" />
<circle cx="260.0" cy="580.0" r="2.0" stroke="#b20000" stroke-width="4.0" fill="#b20000" />
</g>
<g>
<path d="M 450,530 L 401,530 L 401,470 L 450,470 C 460,470 480,480 479,500 C 479,520 460,530 450,530 Z" stroke="#000000" stroke-width="4.0" fill="none"/>
<circle cx="490.0" cy="500.0" r="9.0" stroke="#000000" stroke-width="4.0" fill="none" />
<circle cx="400.0" cy="480.0" r="2.0" stroke="#0000b2" stroke-width="4.0" fill="#0000b2" />
<circle cx="400.0" cy="520.0" r="2.0" stroke="#0000b2" stroke-width="4.0" fill="#0000b2" />
<circle cx="500.0" cy="500.0" r="2.0" stroke="#b20000" stroke-width="4.0" fill="#b20000" />
</g>
<g>
<path d="M 210,50 L 161,50 L 161,-10 L 210,-10 C 220,-10 240,0 239,20 C 239,40 220,50 210,50 Z" stroke="#000000" stroke-width="4.0" fill="none"/>
<circle cx="250.0" cy="20.0" r="9.0" stroke="#000000" stroke-width="4.0" fill="none" />
<circle cx="160.0" cy="0.0" r="2.0" stroke="#0000b2" stroke-width="4.0" fill="#0000b2" />
<circle cx="160.0" cy="20.0" r="2.0" stroke="#0000b2" stroke-width="4.0" fill="#0000b2" />
<circle cx="160.0" cy="40.0" r="2.0" stroke="#0000b2" stroke-width="4.0" fill="#0000b2" />
<circle cx="260.0" cy="20.0" r="2.0" stroke="#b20000" stroke-width="4.0" fill="#b20000" />
</g>
<g>
<path d="M -31,-75 L -1,-75 L -1,-45 L -31,-45 Z" stroke="#000000" stroke-width="4.0" fill="none"/>
<circle cx="-16.0" cy="-60.0" r="9.0" stroke="#000000" stroke-width="4.0" fill="none" />
<text text-anchor="end" x="-45.0" y="-51.0" fill="#000000" style="font-size:24px"><tspan style="font-style:italic;">IRQ0</tspan></text>
<circle cx="0.0" cy="-60.0" r="2.0" stroke="#b20000" stroke-width="4.0" fill="#b20000" />
</g>
<g>
<path d="M -31,5 L -1,5 L -1,35 L -31,35 Z" stroke="#000000" stroke-width="4.0" fill="none"/>
<circle cx="-16.0" cy="20.0" r="9.0" stroke="#000000" stroke-width="4.0" fill="none" />
<text text-anchor="end" x="-45.0" y="29.0" fill="#000000" style="font-size:24px"><tspan style="font-style:italic;">IRQ1</tspan></text>
<circle cx="0.0" cy="20.0" r="2.0" stroke="#b20000" stroke-width="4.0" fill="#b20000" />
</g>
<g>
<path d="M -31,85 L -1,85 L -1,115 L -31,115 Z" stroke="#000000" stroke-width="4.0" fill="none"/>
<circle cx="-16.0" cy="100.0" r="9.0" stroke="#000000" stroke-width="4.0" fill="none" />
<text text-anchor="end" x="-45.0" y="109.0" fill="#000000" style="font-size:24px"><tspan style="font-style:italic;">IRQ2</tspan></text>
<circle cx="0.0" cy="100.0" r="2.0" stroke="#b20000" stroke-width="4.0" fill="#b20000" />
</g>
<g>
<path d="M 210,290 L 161,290 L 161,230 L 210,230 C 220,230 240,240 239,260 C 239,280 220,290 210,290 Z" stroke="#000000" stroke-width="4.0" fill="none"/>
<circle cx="250.0" cy="260.0" r="9.0" stroke="#000000" stroke-width="4.0" fill="none" />
<circle cx="160.0" cy="240.0" r="2.0" stroke="#0000b2" stroke-width="4.0" fill="#0000b2" />
<circle cx="160.0" cy="260.0" r="2.0" stroke="#0000b2" stroke-width="4.0" fill="#0000b2" />
<circle cx="160.0" cy="280.0" r="2.0" stroke="#0000b2" stroke-width="4.0" fill="#0000b2" />
<circle cx="260.0" cy="260.0" r="2.0" stroke="#b20000" stroke-width="4.0" fill="#b20000" />
</g>
<g>
<path d="M -31,165 L -1,165 L -1,195 L -31,195 Z" stroke="#000000" stroke-width="4.0" fill="none"/>
<circle cx="-16.0" cy="180.0" r="9.0" stroke="#000000" stroke-width="4.0" fill="none" />
<text text-anchor="end" x="-45.0" y="189.0" fill="#000000" style="font-size:24px"><tspan style="font-style:italic;">IRQ3</tspan></text>
<circle cx="0.0" cy="180.0" r="2.0" stroke="#b20000" stroke-width="4.0" fill="#b20000" />
</g>
<g>
<path d="M -31,245 L -1,245 L -1,275 L -31,275 Z" stroke="#000000" stroke-width="4.0" fill="none"/>
<circle cx="-16.0" cy="260.0" r="9.0" stroke="#000000" stroke-width="4.0" fill="none" />
<text text-anchor="end" x="-45.0" y="269.0" fill="#000000" style="font-size:24px"><tspan style="font-style:italic;">IRQ4</tspan></text>
<circle cx="0.0" cy="260.0" r="2.0" stroke="#b20000" stroke-width="4.0" fill="#b20000" />
</g>
<g>
<path d="M -31,325 L -1,325 L -1,355 L -31,355 Z" stroke="#000000" stroke-width="4.0" fill="none"/>
<circle cx="-16.0" cy="340.0" r="9.0" stroke="#000000" stroke-width="4.0" fill="none" />
<text text-anchor="end" x="-45.0" y="349.0" fill="#000000" style="font-size:24px"><tspan style="font-style:italic;">IRQ5</tspan></text>
<circle cx="0.0" cy="340.0" r="2.0" stroke="#b20000" stroke-width="4.0" fill="#b20000" />
</g>
<g>
<path d="M 470,170 L 440,170 C 450,154 450,126 440,110 L 460,110 C 490,110 510,120 520,140 C 510,160 490,170 470,170 Z" stroke="#000000" stroke-width="4.0" fill="none"/>
<circle cx="440.0" cy="120.0" r="2.0" stroke="#0000b2" stroke-width="4.0" fill="#0000b2" />
<circle cx="440.0" cy="160.0" r="2.0" stroke="#0000b2" stroke-width="4.0" fill="#0000b2" />
<circle cx="520.0" cy="140.0" r="2.0" stroke="#b20000" stroke-width="4.0" fill="#b20000" />
</g>
<g>
<circle cx="916.0" cy="140.0" r="9.0" stroke="#000000" stroke-width="4.0" fill="none" />
<circle cx="916.0" cy="140.0" r="15.0" stroke="#000000" stroke-width="4.0" fill="none" />
<text text-anchor="start" x="945.0" y="149.0" fill="#000000" style="font-size:24px"><tspan style="font-style:italic;">IRQ</tspan></text>
<circle cx="900.0" cy="140.0" r="2.0" stroke="#0000b2" stroke-width="4.0" fill="#0000b2" />
</g>
<g>
<path d="M 770,170 L 721,170 L 721,110 L 770,110 C 780,110 800,120 799,140 C 799,160 780,170 770,170 Z" stroke="#000000" stroke-width="4.0" fill="none"/>
<circle cx="810.0" cy="140.0" r="9.0" stroke="#000000" stroke-width="4.0" fill="none" />
<circle cx="720.0" cy="120.0" r="2.0" stroke="#0000b2" stroke-width="4.0" fill="#0000b2" />
<circle cx="720.0" cy="160.0" r="2.0" stroke="#0000b2" stroke-width="4.0" fill="#0000b2" />
<circle cx="820.0" cy="140.0" r="2.0" stroke="#b20000" stroke-width="4.0" fill="#b20000" />
</g>
</g>
</svg>